<mxfile host="app.diagrams.net" agent="Mozilla/5.0 (X11; Linux x86_64) AppleWebKit/537.36 (KHTML, like Gecko) Chrome/133.0.0.0 Safari/537.36" version="26.0.11">
  <diagram name="Page-1" id="QflmH_TtvKIsf_54jf-y">
    <mxGraphModel dx="1195" dy="660" grid="1" gridSize="10" guides="1" tooltips="1" connect="1" arrows="1" fold="1" page="1" pageScale="1" pageWidth="850" pageHeight="1100" math="0" shadow="0">
      <root>
        <mxCell id="0" />
        <mxCell id="1" parent="0" />
        <mxCell id="NQ4dIr6F3BnEGQSZVLPv-2" value="" style="rounded=1;whiteSpace=wrap;html=1;strokeColor=#6881B3;strokeWidth=2;" vertex="1" parent="1">
          <mxGeometry x="110" y="110" width="580" height="280" as="geometry" />
        </mxCell>
        <mxCell id="NQ4dIr6F3BnEGQSZVLPv-1" value="" style="fontColor=#0066CC;verticalAlign=top;verticalLabelPosition=bottom;labelPosition=center;align=center;html=1;outlineConnect=0;fillColor=#CCCCCC;strokeColor=#6881B3;gradientColor=none;gradientDirection=north;strokeWidth=2;shape=mxgraph.networks.server;" vertex="1" parent="1">
          <mxGeometry x="70" y="50" width="90" height="100" as="geometry" />
        </mxCell>
        <mxCell id="NQ4dIr6F3BnEGQSZVLPv-8" value="" style="rounded=1;whiteSpace=wrap;html=1;strokeColor=#6881B3;strokeWidth=2;fillColor=none;" vertex="1" parent="1">
          <mxGeometry x="140" y="160" width="250" height="220" as="geometry" />
        </mxCell>
        <mxCell id="NQ4dIr6F3BnEGQSZVLPv-9" value="" style="group" vertex="1" connectable="0" parent="1">
          <mxGeometry x="160" y="170" width="50" height="70" as="geometry" />
        </mxCell>
        <mxCell id="NQ4dIr6F3BnEGQSZVLPv-5" value="" style="shape=image;verticalLabelPosition=bottom;labelBackgroundColor=default;verticalAlign=top;aspect=fixed;imageAspect=0;image=data:image/png,iVBORw0KGgoAAAANSUhEUgAAAMgAAADICAYAAACtWK6eAABFYElEQVR4nOx9CXxVxb3/b+692ZMbyA4ESNjEBFBQERUBEcW6UKui9anVWmv71L++tj67+tTa1lpf1S7avtZaba21xhWtuwKCgoqALGFHScIaEsi+3/l/7nLOneU3M+duWfT+/EjOnDPbmTPf3/KdOed6ICn9LinDR5CMcTPTwAVpQCEDCKQRIOlAApd9ANBHSOBvDwXS1plLWrreeK5voPv9RRQy0B34vEr2Fd/PTT/SWwEEKovO+/F46uouBULKCSGjgJCRQCCVEAL+/wNPIXQcTAfPcWmAJuIiDQTIQXDB1qNb39vVsXH5LgKwu7Ouelvj+881DfQ9fx4lCZAYJG3s9HTPsJHlmeXHVbiHlR7rGTbymIzyEyqJi4wGQvID01436SNJ+8UVBpEALB8h5CAQ2N2x7cMtnQ21u1v3793avXt1dcu21Tt7DtclrU+UkgRIJFJRAcNHLpjoKZ54Xs7x510AhJxGCEmzJjLgkzdQNPDXZUj787v4tA40eB7BGgE0UuJafmTl02921FUvqXvirr0DN4BDT5IA0UlhBWQUj6nInPal2dmjp80hw0rnASGjUBAIIJHSTkGCgUZTfwQuWuCYEtjetnXV0t76ulWHVlS917iyaueAje8QkCRAEPHOu2lcxrSzr0krnHQlAJSzrg072awJzaXZyRq6pp+8gqVxEdEC4PWJ7Ur9kK1RsDrCP3UKmw+vqPrToU2bH29++a5kHCNIEiAA4PaWQNqxC09OHz3tvMyKhQvB5ZqJamCXYdI6AU00aZBBYaW1LhoCmnBeaRh6XQCr61dUvdrwyaolja88sCmxoz405AsNkJTCca70yb84P2dOxR1AyAxHrhKTBhY0SFq0CmDQ+JEE6Xg8ogYaIC6bTgiFl2qfvPPBw6uq3uncXZ2wZzDY5QsJkIwTrzghddTll2ZUlF5KCCkDjb8vTlplfOGKEDTxYLYQEEkumsoa2ceGwaKwpWFlVVXjp6uebHjqgW2JeSKDV74wAPGMmDrcO+97/+kpnXotIWR84KTKTYnRkjgCUQSxQyyWBATQYPfpUHwA8OH+j6qerH/y/r+2b1vdGq9nM5jlcw8Qd355evYZt307dcyJPwZCCnQWQvT3nQbJKlBIk1UDGu1kjorZUpMBDuIRk+w9+smyH372xxv/0bmn2hfrMxrM8rkFiLtkyoiM6ZdflzZpwfVAoNSpm6IFidMgXQMKpdvjih0k5jUSxBpFbklsoQAbGldU/fnA8/f/o2Xr6iOxPK/BKp87gLjyylKy5t56g6d0xp0u4hoWOIlNVsQCxOLacK6TCJqEMF0KZi2axcjoLYklh5o/WXZT3UM3VjXXfb4CevdAdyBeQrIK07Pn/+CajNO/97jbO+IqAJJuX7P/MpMplGavsxNEuBIqR9TXxf4wk89ui00LBYhQQzAt9xVtzwI+kibYfUnXCb5G4lyy0krKFntnLVrgyfI2duzftdPX3kyjqmmQyefCgqSUzRuRufDuV4DA8U7cGKUGdvH5nfj7cWO6NEF6JNtP8HhEHbTHw9UShfhg2fqHLr2o49WqIe92DWkL4iqsKEi/4KH/Tqs4/1ECMF7WuIIFoOFTotWwLQRFNCxibfg0MVwPt2VrbBA1uF7j890V8mssGQjWhzBtC13j88YCFAJlxScvvix9TGV329ZVm/ram3tjqG1AZUhaEJI5PTNt5qJvp4ybdxsQUhwxe4PFDg4tiRhPRGxJCODtOrAkXP0RLjQ6imsgvpYkIBR2Nb5X9fPP/vTdJ7oP1/XEqdZ+kyEHEFfxLSPSv7RoiYuQE0HlhjjZp2SY3FEzWxjTZZiccWO6DCCOSGHEEyQA4OmDVzb8aN4lzRuXd8Sv1sTLkHGxXN6x7pSZv/p+6gmzniEAZVggKrod+nRYcDeJSK4JW1gVFKNprh2wa2ePJbeHIoE80zbRuIOilyS25dRFI9EH7ZL4XDCx8KxrrnWVVO5vWlW1MT61Jl6GhAUhZfOK00778YuEwMnEYlxMgadJA6sCYqMGjiJtTWpxJd3RyrrJEgntgewiOqJ/USsLEAOzpRQfwHMbv115dUdN9aBfjR/0FsQ16Suz0mb+1yuEkKnhs7y+xQJPNBBlNTARNDiRIuGwBiaihpWtjXidS7PlCZIW+0hkja+6L8kaEiG/BSLR2giW0OqnyurGEyQE4NjiRTee2/FZ9dsdNdWN8as5/jKoLYjnjHu/5i4+7s8AkIoHs+BAg8cepEuvuoI6fjCldfEHgH5jYzzjLEfWyb5PBMnxkYN1K5ZdUHfPGR8lovJ4yKC0IMQ7Js294DcPunPH3UMIuIHxufmHJZOpclrUwFh+MbYQYw+eIgbEurA9Eq0TKOMekOleXX6pfed0L1ar0Tpx4xx/VwsAsr1jy67JOHVhX8eGVSt7m+vj3kCsMvgsiPecgpSzbnoHCJnqSANbeIl0i4UDjWvUwKC3NlbnomG20PtMQJzl2OraeRPz2CmFFzf8Z+VXO2qqOxPTQnQyqCyIa/LlJ7lO+sZLhJBK65xRA3M+dKRpmdnSt4cxW4J/T0VrFK6AnWyAaGyxXeMCn4npchBngcbqimNlX0sASAiBycNPXnRa56G6tzprq1vi30J0MmgAQk667VZX+blPAYEi+5z9l2hpUX3gaU5j7QECCmxeKF00ISi28sjAU9+XeD0gFGS6F/C0so9sezoXTRybBIPEk5VbXjBn8bczxlTWNK6s2hD/FiKXwQGQeb/7hqtgyu8JIS7rlKTx7AeDa+Dg5AA+TYiztOimGDWwnFeeXAywRMsRTZq7Tyx20IwLw0QRgaxQjQVAON6TrS4kKmj3S0rm2MoLAeC95o3LP01UI05lYAGSnu+G0375Y5Jdei8QCHwGFXVDuAnCV0FQp0TtxhjTiBvCamAVaFANDGJV8h4s7r7YiSxdF8fF1J4AGtGyAUjEAwhWVr0YSeKzZ0stxDtt3vkUYHfLkV3V0NyckEYcdWTAWvbL6Q/cDTljfqINkiGa970BCTxjTIODV11DjZt24xLNYqTjNCjIBodBOkRE/yJjweZNoHTVbf7muuunPJLYVtQyMBYkPT8FTvnlLyBn9Pf90w6U/r99UnZb2LQUrBJZA1vntT63RkNjbpRKAyMuourdE9V9G9M6siGGOAtQKyvcI6ugEhSPWOLxFp1dNGdx45HVS9b0tve/JRkQgLhOvfd/iXfMrRY4APGzQQCBoyAdDD40iTA/0xqaFkGj8O/5xU3GjcLiHOAnHzZxidiek7SCsVO7jFi8JysUYiMSEiUed27RecNPWrjvwEsPr01YKwrpX4CkF7g9p/3qHsgZ/d2wcpMnOiAPT8wbPsfkFycrgETB4iAx+dx4e6DUwODs3RPkvgH0cZYIImxcdGkRRKo+glOrC/1mSebTisV7W7Yv+aQ/Y5J+BYhr9q9uIzmj7yTMiMuTQ62BwSmICDONCV+3drIIk5e/HhnThYPAYI0E66JntsCg4Q1pB5aNEAdMF/SbJUnNHVF0IS0dvb3lnap+++pj/wDE6wX36b/9lidr9L1+ZQCI1mQF1VTiZNClCV+bbAWwySO2z6QFjWvSwHoXTdNOqPNSnEWQbTYY02W1p9X4YvsyiLnYyvFiJA+yREnuiMr5lMIHLRuXf5a4VsLSLwBJmfLr2915o3/tBweu8eUyRpBgD00JGgwkYtoAGuHhay2Z0UXTWBIrI8UVsh0nAbY3Lewyiu2p79PsDkayGNkPIMnInTbvyoyxlVsaV1Ql/BMqCQeI55grZrjLTn+SnVKiObeORUEnD7LL1a6LvS6mHVkiEDQw4pZgbgoBuT+AWBLD9g+UocPum6k/vB7hZIFPM44adxAdC42r2g/0rytzTOWXOnLg7x1rlic0IEkoQMi4E4pTK255kdjbR/BlPTuNuF0iqESbgE4mUGlg4swN0WrgCNNIUKxz0ZTMFnbfIFWjJxvEZiNwB/E2FQoD1J5BHCUtO2/8CU1rX/9nb1N9wn5By5WwinPGZGZM/dk7LkIqeE0ZGlaWyhS2ZUgmnFKglMppGgICkg7mg9B58RNNcn3hQ6pN2/mpUH/omE1z55j67LTivtD8lO2PfhyoeP/IfRrHlb1PpB/c2FB5rMS8iZC0wtFzp/3f5r97SysS1kbCLEj6vIcedqVkLbTSokaR3B0NpSsGjzpLI5UFEXDYwiLIGwCdaGBJo8saWKJ/TS6blF/uI3efWroXya9Jc2VM22qM1qlfmC1/1ZWu3KKmxpVVqxNRf0IsSMbs+650ZxZeZ002yT9lpgpmPfgYQNZMooYVtZpRA4Ngeey0qOFlDRxtWmVdjGnFfQW7h1g77L6pnObGTnGfXH2I1aWctZCtrmS4EyT5cxbfe9zPlp6YiLrjbkHSxl10auq4858BINxvsMsgwa+Bxn/F4wW2XiTNtQMIs6XR2FIa0/jhzFqmi1llV/eAbxeNs1jrh8VZKnIikjgLtWR6C68N2sVAK/7iTikp+0p7bfWzHTXVcf2aY1wBkjpq7piMGd/7d+gnkLmJLrlYCA2qyx/OA2qQoGsDugU2p2skOrcHA4n5fRCnLhrarmZvmpIeFmqx29OumTgHSUAE17VfmS0CWdmTZ518dO3rT8QzaI9bl93esZ6cBX9ZC5RMpUGDHDgfMNUh8yyeA9stoExcSDlzLpaVVnMj3QUrrFITy1eO9CeZHX3ZkIT+mHf/mtJcv5S7bjXjYpVXvCIsXhfbU40jfu9iv9j64jXjFNIHj6y+gHwzXtXFzYJkHnffbR5v3n8Aqpf1QTiaEt0jRQCqCoodpSPdBYttZNRqYLG/sisiFiBMWrdmom8HZHpYdV8Ev65ykzDbK9+72uomnP51wQz3pMotTcuqNsenujiIZ8LVZamlE24PTpjweZbC5Y4JkQJyAEvxELksIc7oXyHwZGnLcOCIXEfqUweebHtIfpHyFAJwlDAQjgEjG0BDTigoWFVbMjlhoJux64BQ4Qjdi95ngoP3EScu/t+cqXPT4lFXzBYkdfixud5TfvwWEDLKOkcENaUN0DFrERH9a19QxBPhYz3NKaScbLFQ7Q5GNL4UW0jGw+D/i9tBTHEWdy+A3LdO4wvj5DDOwq2ueL0f6F8CudmTTpp45IMlz/XF+DslMQMkc8EfbnN7si7jJzrRggQEYPDH8gRA87P1SsFghGm+FceTR8neEHz7CdG8D8K6YITwjlK4nwJodNtqiGF3sFW/0kU0jBuAdF2MD1EWz24XQW4cJWVY0ZTetuaNLRuXb4mlnpgA4smvLMiZeNkTQCDTOkckTaa3GFprQViViecBkP17+eEBaJkugm1sxH1ocKSBHb4PEuHHp9H7BJnuRelhEVQqjY9YMqdMF2DWBzET3H0kDiOQO3Xe1ENv/OWRvvbmqFmtmACSf/qDP4S03HN0kx7YQcLWCtBBYtYKHOVXuDbYBj3tZDFvbDQG6USh8UNp5eQ1vW1oeltQmK5SkK4K2ol6HMT+6O5bbEulQNDgP1EgIVCYUTD6s8Mrq9ZFW4Un2oJppWdMcHnH3MSStIEbpyxp6x+M8IqqfzDsvKGBYQM48RwJL/rK14S2/Oft/HZ7lnINtus4TUigz8RHbTo3UL8PgLqs66H8jIcbthzh69bTp0C7CdCthHo+69j5Ri0Bsg8AGnobdjf2NexuA4BOAOgNAcxDADKzJy3M8aXAMEpIMSGkJLNy4RggZBwhMJ76wAMuaxyofR9gtcaOGxdSA3ef1oBRVhn5aOA+7fyUHZfQffsY2pZpP/x8w+MADJBEuj5YX+JAkjt78W0ZYyqe7Kipjup3SaLqVlre1OzhZ/5xPQU6nluv0K1zsJPZsC7CMzY0RLTo8wNnbUIaMMIvh4gcPlgaNtIvh7ighxD3h9073/7A13ro494DG9dBy+Fd3Qc2dEcz3qKkjj4+051bcmzamOnTPKfMn5ntLpsFBKYBIS71WoQ6Hei35vfa7XGN8IspbDymTQMDtgRIezY8u/Wi0Yu7D9dFHLBH1aW8U352Q9ro+Q+hE1s30RGQgAAY8RzY+UG5eCiBhHnIJtCgk4cDBEQy2T7t2bX0Z12bn/tX7951bdGMbbSSe9YthakzFl2bNXzsd4jf4ph+ewS7Lt2XYXKD/lvESmD142+RWFL7xJ0L9z551xuRlou4Ox5veVrhOU9uBKATQbXyrZvoCkuim/wiSHSr9MBaEuzhKVfCdSDSgqSm72B1Vfemp6t6D25aQ9sS926CE3GPOzE9Z8KpczMnzrkgvWz6JUBcxcCCAoT7lEBiWhVHQIQpoyh+r12MN+MpXfW1S9ddPWZ+pOUi7krBGQ/fkVo0/U7L75SB4BwkKmujKmvajgJiPIRoQNG1Akyjan6LhHmoNb2fLv9ex9I7n4l0DPtL0sed7PZeeM+N2SPL7yKEDDO5mKB0GRGNH/PH6DAyILGWpLZu2Vl7rz/jrUjKRNSN1IorxhVO/X+bKdDgj/RTQ3ygsAbhRVwzMFTxiC6/fXM6UDj5QqNL8pF9hLhW9G6p+l3Pjlde8B3ZM6DWwqmkFE/M9M687KrcedfdQAhMMyoLR3GWyfJg8YhTkCTM1dqx9qZTju/evbrdaYGIaN5hE+/+75TcnDPsE4RwdKhE9yro37Al5U2qki4mXI1Kc2yfQ9LGtQGUBuXaa+nds+ziziXf+HHf3jVbaGdTgjdMxE98bY09Hdvf/fjIGw/+MXXKlw+m5gw/m4SePXffIjkhuqAA+GQGFf3L0+4o/UuEMVfMpThJfpo3d2fDiqr1Tgs4BkiK9/zsYSee9xcAyAF2cgOyZkDkO5O2dShAgpWXVumV17AczMNCOHj1Qpb9t50e3fN/3R89dFXvhr+tkTIPMWlb9fiavq7WJZ5hI4o82fnHhD/9yj8/3bYaNL9KGYHwbIUTaDqBIMkcUzm6cWXVn3qanP2alePmi+b/8afpRSfcjsUalqsFqiA6QmbLHJvog3bxGA3aTQxPMHHIt/mJC3o2PvGh03EaSlJ8ze8X5Ry/6CkAyFCTFyY3SUHban7zkXXhxDzAucaQkHikrm7Z+XXXn/FvJ3kdWZDU/Kkjhx93w5OBH9PEOkzU2/7QrQectQBeg2CWyKkbhVke7pqouYR+hMv7oGHbgz3Lf3JhX+2KfvlA2UBI2/pXtnXv3/p4etmJo1zp2VOAdwQCImt4wzgKB/a4mzY2cvllly2eIMnJKTuu/o2//LmvvdlnyusIIIWn/+qHKZnF81UT1Zr02viAAUYkIMHzhwdRdO+w/OHzSDscwABox+HVfbtePLf3g/v+Dl1NPYahGfLSfXBn89Fdrz1Dm5tWZU449WS/ny7FBkIZI2hUykgEARvXqECkUJSxCCFQRCnsbFr7xifGvMbaCiug/Kwn9lBKx4COaQLm3YEo6F+R2QKNiyWxYgBcflVZAD3N6QJY0v32jV+F5pqotiUMdUmdemHx2Ot+9w4QqEDp3yh+i0RyvyT61+DCASSK2Vq2+lxyhimT8YWp3LwZpxMgY1gmAtPwYtCuyi+lLbaIqOqS86sdOtm9E/vKvrhEmS+N+Oo+vbv7zRsv/KKCwy/dG184uOee+Sf1HNn7uPiCWOCvT3gpyie/MCaOq+6LLeFzlH/BS/F9sDi/aHV6/umLR5syGQHiHX/hFaCZqBwQLNMcikl0E5tNq0CiKs+2zdKxSlCirAzzsJtrfuf76Ob/gdaaIUPdJkq6D+xo3/eHK7/u6fW8FjiheYtSvC6+Schdp3Iae+uRop8mYuuP262682YvvtiUSQuQ1NxxGWnDJlykowBRkNjXFPmFiQ7sVSFuwcpjxyBYLlVfgXH/gEKfr6nml75Vd35PNw5fNOk+sJPueHTRV7v2bXta0uiadEAwC4BYFhEYknXCrFGcQZI3d/FiUx5tkF5yxv1XpWSO+A9lEK0KuhVBNRuAqeoCIWjn6iJO2gacR2fzW9JW+3NYfstPoLfDyGZ80cR3aF9X08q/PZN9/HlTPDkFFSCRMjpmCwvagY81gA/asTlCCMiLkXGkfwkFv4v1dPPG5YdVeZQWxJNZ5MosmPE98cYxN8e+LloEhv7VWRK2vA0MItO0pvhCRxdL+Vtqfwsf/PRu1f0nJSh7X/rBdV1uz2vSly19+PeIlWkAbVqyLgCaD0pA+HqMMuprd96uu64ESM6YhfMBSKXTIFoCDhOTiEE0FrTzcQcPEq1Lp4hHQAeq/bV3wIr/ugU6Gz73NG6s0rvpo6YDd805t6dx3xMSSEygwNI+OYgXQcPmoT7c3aJirBOlkD64LG/24rGq60qAZEz4j0Wq+EAMolUgCRcNB9HchAYRGGCXx0Aille1jYHErt8Hz8OO+5OWIwLpOrid1v3hyusppdvkz/mITJODz/84+RI+BQeWJC7xiCtvzuJzlBdVF3KGj14ouyZ4EG2nDW6UzpJg5VXunbK8gvC16+1sWElX3Hx5kq2KXHoObO84+Nfr5lNKd0pukILuBQ0dLNK/mKslMV0SiOIDEu/kWeeqrqEAKZh2wxQCZBKg/jvRxgeiy8O6WqBhmjgrIbpMClBi+aW+hov2+erevJ621nZFM4hJAWhe9/q+hlfuv0WiZUGj4SNIy3SvwTpx16K/r9SC0Qu8U+emY9dQgHjLzvmmSWOL8YGOjgWM+dDRt8i6BQZKXV1E2CpBj2z7X7rtqZi+kZQUgLb3q17pObL3BeMCn7QgqKB7fQLIFIuRYvwhgygmkGQWn3cDSvlKAEnzjnenD5v4NUBiDdDEB4BYGyk+YIJ2osqPTnTCWS7R2sj5xbJQ0/fJb38a9fAlxZau5jqof+7uWyil9gco1KBQu0msUHHVHFmMZPPii5EQE62VP+fSq7DzEkCyR86eRYAM08UHRNqMFmF8YKBgcVCGi2LWRpkfSGvP9n9cQFtrHb9FlhS9tH7yck3r2pe+Tin1qdwgbIEvGqZLuRiJWhbgVuEjlHnZCxbniSclgGQWTz/VOlbFBwDy9hBwGh+EV4fQoN3UHpcfi3uEsrSt5s++bU9tiGrIkqKU/Y/d8GRXr+dlcfIqYwcxLTJdonVBXTQN0wXYtpiIJCW3uOI08aQEkIzC6bN0lK0pPsC0uWRdkO0obH4ur4PtKGJ+pl+NPeuevU83KkmJXpqX3P4LvxVBmatImS5hjxa+Z0uMe5B1lBiC9sxTF54unuMAkpY7wZ2WNWKe0r93EB+AYmKjsYawsdEESpHZEq2NkL+vp3blYt+Rt/ZHPlRJcSJHlz3yQeehbT+03Rp20mMLfCJIVKDRgsQU58h7vZxKXtkp88RzHECGlX/pVELA9sNULhJOqeKWRJVfZUkkt0m1+Khw76z/qM/1es/aX7wT2RAlJVJpeeLu+yiluylGweoW+Oy0wU1CrQO+GBmrJSEAx+VM439XhANIbtmXLgAsEI5gD5WU30jBqulfKW7R0M3itZ49z//B+dAkJVo5umc5PXJo0+/VbpCe7pXyAyjpX62LhuwGtsUpSAik5k6ddyZ7igNIRu6kBRKlanjxiXdxiOU1aSe2FIALe7ZU7h1O4aILl5t7PnvN0Uv5SYldul/63WMA0CVqcFBqfAQ0iAUQrQvVxTmhArj1cW5JRl155wVs2gZIZuEFXiBkKj/RHATdijUS0K6j4HU53diIXWPb661dfis0f5rcTtJP0rLx1SNd+7b9MpCgivhDsZUEBAtgyi+yWLrFSo7+dSo+OAe8pXbSBkhqVm8lIcGfQyDifn7EWjiND7AyWjdKeBsRszYYKO1TlGxqX/Oz1yIYkqTEQQ4/d/svgdI2cfJagtK9ThYENXSwyYVjxWk8QgiU5U09pcBK2wAZXv6lKbJWFgJhxR4qJrcUH6ivIbGMgf7VxTZWX3v37XzaPAxJibd07Fzd2dsY3ILiZIEPVEwXFqT7nNC/BqYrkqCdwDHWIRODuCYDYi0kClcTH/BMlTI+kK0H8g4JIMwWaBYIravde5980fljTUo8penDp58LHIhBt7SxUcN0iW4TU55J4MyWmFYwXSaQ5M1ePNk6tgGSXThjnCpWAAWzJbFRimugWEfR1oWVRyhiASTr+hqrN+pvPymJkvYt775NfbSNC7p9qgW++DJdVLeuIoFIDxJCQAZIas7IY1XxgbQ5EXnxCQzxgenFJxCtCxDli1agoJs7a5f+3NdRnwzOB0i6atY2dR3Y9rC0NuFDmCp0wU8DGggTABxIELrXDBoI79tCZPhpiyut4wBAvIWzXARIGWBBsQIklqhAwoLBycZGNIAH/Su7Qpnmnj3/fiGaB5uU+Enb+lceF31/CO3QVQXtSrrXyYIgstXE0bsnGhNCCNjfywoAJLv0lGMBIM20hwpjtrD8mIvlZGOjqm1QBO1sXb6O9FW9h9YOid/r+DzLkb1vbgaA3aqgGtt+gtG9AIr8igBd76IhcY1mO0oAIBUVgePQp+9hMqrBEbdGonAd7qGyS5j3UIXTbNAu7NkS2+5rfH11nJ5xUmKR6mroObDtA9ZNwkDCi1rjawNwKuQ30r+ItcHjkdzSGYsLwQJIRv6k8djEZsVE/6qYJpAshHoPFZ7fGf3b07D5I+k2kzIg0nVg58dKupdGssBn3tOF5de6aNJiJM5sUR8EvnYfAEh+2fnjQcMOYRpbRf9i8QEo1khU1kZFAOj2bPk6DiXZq0EibRtesX+4X0n3okG7CAqDBTDEGpQ6XIy0GuRBMgGYXxca7/wdCyw+0GwHQcqbgnaxLmLYjgIAR3saq2shKYNE6Bab3hXpXlHDG5ktDdMFZqbLtO0+1AEOJxBksgL7TYI0LyHHkAjiA5bZ4ihcBxsbwUD/ouWRhUSB/t3saz+UpHcHibRteHU/pfQQTvc6AI02KEdAJH2MTgaRiv6VXbRgG9nlleOAWQcpAntihm9U52KJ9C8omCmC0L+gsSRKF0tjSTobd++O3+NNSpzkMywod5YGc342tgCFJVFYG6YypSWhFEZB4Kty5eenEyCp4i8tiRM7fE12sZzs2VKXl0HJHpsJAADS/lkNJGVQSe+R/TUmJgtNGxb8VEG5SPeKlge3Ttq4JuhiESDhX63lrIV6DxUg1kWicB3uoSLCK7Sgc7GENxttHw3IgQQ+66REIV016/aBKghHQKNjqth0+JCq8zP0L0oG6JiucF3D/X88QCDHP+n8F/2TjpJwRwJzjwYnqv0TZhD87LyV3zoG6yoJm6nAJKfA5Qm0AfIx2x73c2kU0PwWmPzp7taDB6N4hklJqNAGO74InQk+z/ATF+dP8JkK1xVpe25xMwhCOcKNkiBlG8xvzVtfcLKF5xK/NBOchiQLAgChkCVNdL+WFiamXdJqnL0xcSIzE50FiXgnPMiCFbOg5O5YAUp/2nd0c1N0DzEpiRJKoSHwvEKegKW9uTQJ/EZHcLKycwlE0MhzEUvbXkcolmC9EAp8+6EMdltWP+w0QEbJrMUuD4HgS1Kg0NgQsghoxwggGh5sJEgaX9QWRDBrDIok6yKWZ/pKKbRE+yCTkigJ7uoNTFwITb6Qv09cIVD4aIAmsq4HYw2wr0N4sgZmAKvxgbVM4nWmLbt+f1r4yBUJeVeiNbI8qh43pPtdLJeEQhpW4kFkMW6TYqKyvQ42Yjl26onNggw4YPOgFK0HNzJBrfCF/eHNwSoel6+Df2b85ONAw4KIAQUFjcYHwswZvDxXv+TlkHDsobBGFCDNZf0MGxZEs+LkxSf7mkD/qvPg10RmCxBmjD+myU2Kg0yaP3mjR7kdBGGydEwXtsAXEdNFcaZLve5ipX3EA0DcbJAOAqIoATseUcUHKjfKCtrD5ggkayO2Fy4vlBXa4zUCSf7G4CATWloadGgCC4LhINm2JCGXCAlN7euhmnjL4wu6SnaacZPYADzsdYC2PdDENUCgzxOc8gIzBYLLhIBEMlVCAB+e/IAyW1wADyoCIAwSjNliyqfF4ZkmJY6S4p3s4oJ0kIN0yf0S0iCypmwQrogdwGpNCMgl9w5z0YAHlt+E+IP0TrEjgATJKmZLScEKAbgELAVlqyyPxUlh5gL98ZOkDJx4wJ0Vnkt8kMw5EAIFa6dZepdRtgCR0cEADL0cIAAY0PiCe0lY4FDevPgtCOnkXCzWjRGZqhBIgA3AQUPB2hPZ6ii1g3b7jhXMFkv/EqE9CSQQ5KyTMpjEl8260GiQDMx1kWbV0cOgIHAkN0kACYCaTmZcNuZnxPtcALRTtXLNiirAttLa7SVcQC7XhW1H4Y+F/EI6tWBqPiRlcAklw0xBsh0M+ygelLN7qBQbG+WtJOLqvbxqrkwDRxZ0te34oMsDJOhigcP4wFppt9ZI7AVBBQXLIlxcI1HStyATACCu0jPlUzKLkwAZdEKLgn+oRNeK8QZK99pzQY43DAt85rS0poKFC9DQVV8HfherFVv51sYagrNGhEUabI1Etx1FvSKPbFVh+2oHWmRkXJ5pUuImaaOOK7FdJcbfB5bDofz2E5G5skTJdCkW+IxMl10LoMxa6HSD/6+rfteOVgDSQTRvB4LgRlkbBQnI73SAwsWKdmMj3zZf1r6WWzom9kealHgKySkaA8L2copsLBSvU3HzIOXzi2nRlRLrDx4Laax9uS+HIYjpav/fvRBFfAARvYsulMUWAw2gJIot+Vm5FWWQlMElFMZp4wNwsGBngUb8rpaP3x2Ml1eDSAQFl7YWG4HWA/PK7adSICxMTO4/1EIwx+D8xSei+RgdW1c4Pxa0wzRPZhGJ7xNOSrSSNvksv3tVYAyKMdBwIJCDcqPlkYJ089uG2G+RtNZt2wqMV1jHuT6Gnz3gJj3h3S3QWBIZJLLLBBpLwgOG6Ssh3rSC40bF8yEnJXohAFPtBMJcYSDhrttFEZAw15T5RZBoQcRbM0ta3q/aBRZADu1+YQfYQZLBxQI9nct5YDqQKahkLV2ssSTujBNmSE8qKQMiaZPPmiq6V07oXl06IJo0Rg9TZg8XH9fIIJXdQRIGSFvj1s2q+IDT3uIbfeHc7OKK9gc9VRsb0fZAbk+1sTGjMC8JkEEi7vxxM0WN7+RtQcpMbMdvHxosD9OA1J6Unwv2fQGAhH4wBzYDSrMCuocKQF7JFAuo9myZNjZi9C8o6Ga2fHrBtFlOHl5SEi8p+eNOZlfRAUCie+00N7+Q7SChOomwMg4s3SvQwzb96y/vsi8F3jPhyjP0L9seAdLWvGpJ4C3VoItVt2o3AdLFa3tzfIBqec5a6Jkt2YVz/jE6/hqBlKyS2ZmFJ3lierJJiVmyTr2+klJaJtKyaPwACLOkizcAoXsV9LBYv3Us079oe5+276sOnAgApHX/ckoA6qwMTuMD1TWR/hXz6EGippvZtHyNZOVM/uoiSMqAStoxC65TxQaOmCwszTJbIXHMdGFBu4Fe7m7ca39Gyn4Jsatt/2ZdfMDRsYLlsPOzaXYhEUQGCgGVQBKITJoUyyCAzRl95p1JunfgxFMyNdc9vPybnIZH1jGcgkSMLzhQMPu4tGsmStCo10jat3+wxbonGyBHD3wY4H2xgFy1RsLlx0Aj0L9ieRUB4AQkWHvE5ZqaXnDclHg+9KQ4l9SyWWf7vaygL692kzgQqIJkUxDOiHQdsKBd6AdFyofPyRYkzU22qpkikFa+9Yt/iIuFvLKryi+CEsvP5mXL50+68mJIyoBIytTzv4zGFqLGZpkqH0W3k3AgQZgtXVrcHWyXR36LRHT//H+Pbl2z1bonGyC125/bqttDZZ+JcA8V9jE6bXl2v5emPRUoU0umL47Ds05KhOIZNSPLk1lyoXJBEPCAGEIaXwrC7YuKNAV5zxZl6FsEZHZrJrq3qdb+pQAbIH2UbA2+32VasItsD1WoAu4Qm9hO92w5AGXFiNn3nQtJ6VfJnHfrD4DSLCwgVy0Q2ud8+MZBDliq3yZE4wl8zYSNWdD8EEDAluY1S45Y92UDpH7Xc0cAyAZlUKzZQyXm18UjdnmQ69YTADj9K29BAcgZu/ABj7c8Gaz3k7gmzM3z5JX/N+LLy7Ss4BYprQu2/YRq6GKH6XDdeJAOhL7D3RubaD2y7SXVpLdEjA902l/tRoFQn7ourD3smCtPyKS8iRefB0npF0mb8tVrKaXhD2dQqtT4mNujC9LFMhTbQ6X6WQUV06Whew++cO+b7L1xADm445l/g4aCxeIDcGRtiB2PmOhfsTwLEmwjpdR2KO2dfNXNUT7vpEQiI04g6SOnfdu44KeIJZTxBYBzpguE+MMJ04Wmoadt63tvsOU4gBzY9dwaAuSolUZXsmOLD/hrYiyj2xhpsFxifrfLPX/EnPvPhKQkVHLmfOdHlNLxxrUNwN0oqrEUwTzOmC7JOpmYLus89/E5WNu+/X3uK528i9Wwta+zde9yTIM7Xfk2xQcExN8axJkteTuJXcLpRkq3d+zZz6SPO2907NMgKZikTr30ZNfwsT9VggJLS78GhTBbjItmAoGd3wEosDWVgITaav74xbfFe3SJJ5oOfLBCHTtgIOHpWNBYEm4xEKF/7fwKgIYnv9q9A95yDSuZ8s3vRPzkk+JIUmffeAfQ8CehlW4MlfdEqZguNKgGhYuGLEaiu39Bz2xZ17v3bZd+SlwCSOuhD9+1jk0UbKx7qEQfy+ySqd07MY9VV5p3wvX5x91wgnifSYlNMs6880pXLywMTDbTN3MxDa4JyLUuGhv8636bkAUB+oqulO7trt3+gXifEkD2ffrGxwTgiE6D65gt3Su0oFgjIWIArnGxdHSzwh3MKph2wwupueMzY5sSSbHEXXbDOE/ZvEcppS5TEB5JGt9DZaB7TeQAc051PZRe2vTJi4fEe5UtyJGtvpbGLf8EhxSsqNXZ/KyYtqMoXCRDfh6Uyr4CKS055a67xXtNShSSVQTpM+c+AJSmGDQyYgGQ2AJ5H1xkrlRBvA5EFFkUlK4z6aMfL/kzdrsSQPyyf8dzf2aiCyMF6zQ+UC4kCm8j2m2pyke4kdIvmYXT/ytv+o3HRjIXkiKLZ8I5X4bMgkUU1fh4fEERDc6KpNGx7SAY3ctcF+MNri3R8lB+MRIobWld8djz2P2iANnx4c/WAyHV7DmjxncQH6DHAkgAswgRvLKrye8aXn7RX1Jzx2dg95wUs5Dy00elHve1B6y0FW+Yt7JrYgsD06WyLhExXYbtJz1H9i1r27G6F7tnFCAQsCLPvhqMD+TNgs7iA2KODxQbGwHktxF1rJrUnsLypGSVnFJ+/pKnUvMmEKeTIilBIbljszNm37EMKJTrNgAqmSwxTUFeEBRiCzS+wJircAJNq61d8Lhz95rXVfetBMiR/R+8ag8OO1DoVnaNdXH4SR+2gAokaHnNRkq0ry5YVHDKz+9S3XdSEPGOdaXOv+dPlNIJgbRmAyCIzJWVX8FsYRofS2PWxdlipIHpAuhr/uTll1S3rrYgO59dSoBsC8cH+ETXWRdVfCCVBWcbG5XlHdLN1n/evCm3l1/w4u88mcWpxsnxRZf8M4ennvuHN0hG/uXhyQXyLlgRBIoAWQKJz/kCHwoCE4hCQhECwP9/13D3Y23rXqlR3b4SIJ2te30NdSvuIdweKrXLBErfX7+HihUMJFzArymvWrhU9TVt2ISbRs//08/0syMpKTMv/TMB15niglsYJPjktY6x/VJYkM4ktGklc2UCkVUe+HTrk7/6le7+3bqLTQc/2lI27dvfIEByrHOE+dc+p9kTJbk4QLjiGEi0+U3lBUui66s7I29WztizM1rrlq7w9bQlfwiUlYwLhqWc+cg/XbmZF4G42EsIm+JETsueBJrf1osET4fOEcLPQMLNSGJIh0Bq/fKCDz7Y/8fL79UNg9KC+KWlcUt3S+PW50EaGGculo7ZUtG/4IDZ0rUNioeC5gdwpw+b+IPSM//vN7px+MKJd6zLs+jGfxFv64UmDUyZYFsMiAGhZVE6GPC07v0PKc4BzfYSrrPhets2/vsp01BoLYhfPO60tqKys6+xTxAiBe3YMSDaHgStrtP+bHmClHXWngxK7NidnndiTvGstPaGjUv7uhqpPApfIMkZk+mefdejLnfGV0DS0LwGBhA1OuHTvPKX02J+TqnxIl0n9rs/4T4RqQHOQgnkUM/hqh9+s6/pQItuOLQWxC/1dW++S4DUcVqeiUfAAQWrig/Yaypmizikf1UBvKo9ri0gkFYy44fli154+Qu9TjJi9ij3mb9fS9ILrsA0PrLApqR7Q4WZQ4TuVS0IUpXlUSxGKraPsCJe9/XB0q6adftMQ2K0IF3t9VA4ZuHwjJxRc2U6FmT/0oHGBgfxgWQNRMsVUWxDZOuDxTYAE7NLrzobUvrWdB5ccwAbj8+lZOQBGfflha7jv1VFACZap3WLvXI6qMnFnRDhuoiUFvODEFvI84FIsQcorY8+3fzeX37auWPlJ4oRkfqjleEjZhWefumKXRRoIFgPoJHxRanlmzLXbF8xdCyeg9BvWYOw+MPml9JcHqasrrx9bKXxvgrt+TrqGx46uPobP+lu2tXsZIyGrIw4tRQqvv4bklFwEXExk5IQxo2JJA3a64GqXURfn9W+i3HFsTRyznKl7HpchHfHgte31P1yzvS+5gNdpuExWhAIUL517fmlc9OzvGVzAWMa2IROm4t+IGEsicrycA4vY0kIc11MKy0JEsdgloQA8WRmnJx7zGXXAaUrOg6tqXMyTkNOpn/3Uph42VKSkjkVRGvPTmgiEia6tMKzYPLilgjxNsTJjqQBhHOC+40xW0f7Nl7V+dqj25wMkSOA+CXF1762eMIlXwcg2eJNcDeqm5yKQXOU3xEBgOcXy5r6ylzLyig56crsMWeP6e0+sqnn6K6jUkVDUcovOIFMvfEhyJ/yI/+jBaVbEk4E9Qqv3NRpFUh0aV4IwUAjBORULqjqgZXuo573Dz91/Y+gvt7BQEUAkCMN1V3e/MXDvQVFc6SLom+IaXOFhmfjAzG/aWKHjwlatwpwxLG1CaQ97vThJ+SMPuu6FO/4rW21b27VDtSglrngWnjTjaR4wTMkLbeSJWlQDQzAEyTAuELAu2Ls9XA9yHWJ6RIVkwgauX0QLAR7DxI5xFg3/3Hrjrd/0vX2Y8bYwxLHAPFLR8vaHWOnfON6AEg1BtGmBT/U9cGvYeUl7RWRtSFKkABi3UJ5UlOHjb80b9p/zicpWV197Qe39nUd8UkdHYRCcs7Jdk+Ye5175jV/J+78r3HAkO41fF6yqpimx65LoAED/WsAEdIen0YIACYDCR/vbnnhBzf3Nh3sQQcKkYgA0tm6t7mwdB5k5padCYpJy92mFKsorEu4uGyG2fxIXVzzCj8Wb0+xRoK0Rzg0wdiMwmkXeydddm2qd3x9m6t7AzTtMQ/eAIi7cJrHffJPvpcy6eyXSd7kCwGgwGSlMf+ee19HeD4SPS9pdLluyx1Ta3y+bRw0huUBJE5qhupL2l78/fZIxlBW1QbJyatIP/NrGzdRoONRtkhgtszsEs80icwWml+4Fn6BH6Q8+rp4ZkvMDwJLxpYP95XWdNRveKa3dsULjTVLVvW2H0LfK+gvIXnHZKYUnTQHCqZf5MqbfAmldDgwv8yEjQPPLgLOAIEwqRn2KFZmyxHTxbbvYtIaposlG/paDrx64MEFEX+SNmKA+OXELz11Q+kxix9SUrgRgkSkf0GYtFJ+BDQsSCAG+tcR3cyAhCsLdE/rnjfua9lx6G+dh+7XrtDGW1InXzWKjDr1Gk922XcpQJ4MduaZKKh4EEEi0qbM5JWYLhfv60vpEACk+ogOZKb8BlqXuY+Wd/8wv+Xdh5dGOq5RAaR45KzMUxa/9yEltFI5yJTRWg6AwU12hSXBtDpIoMQtiX5CmC2XyvJJZYPleyiFdW21b67uaz/wUdfhjRt72uu39TRs6IxmvEVxl52c4+pJn+wePW8G8U0+IWVU/imUwhSTlbbv1oFVBxDoXgJKkDhKOwZJhCAwgRgAel2+Fxt+e85XfM0HI95GFBVA/DJq4iVjTjr3X+sp8ZtwhTWgFF1EVB1jINHmR9w7ii0IOrRckYIkvHXBkXvXQ4Hu9PXR3Z17364FCv6ndQgINHXUvNUCQNpD+fsAIA0A0tPGzM2mPsgHCvk0I29USv7U0UDpOABaTmkw0Fb1S9tX68ioqNSWRAQNakmiBokDSyKAQHIH7TRsrf/TRSf0Ht7dHs08jxogfllw9aafZw8/9kda7RwHS6LNP8gsiQmUWF22InEYc2ksl6O2o7Yk2Eq2GD+IoMFARNQT2q7flMYsGwK6tm0rrmp9/uYnIprYjBg3K+pk7RvX/QaAHJbYBJ66kOhfLRPCXec3GqL5Qd7YyDSNUrZsfq6vCLOFbWxk02JZ7f4jbV2G/NIKNJH2PanGUS4bbs9pfvSjCdjbgsjbgOLGxsAf8cMMpo/PKX4NStrYyLUPm9rf+vm/IAaJiOYVpaO1ri0nr4Lk5leeFTiho3DZfwlKoYbzEpF6tDLL9Yv0r1UApX+R9kx0M5pfU54rK1CqaH7uXgAAGxtxXAhTWtUeNo5S2+H2TOtBrFYW61bSvcI5ydVi6pbAGvTF5OvSmglSPtSftpV/vKl717sbIQaJyYL4pWb9Aw8DkPWg02LiQCHHoNSgamuBTSDZ2jDHGksktheJ5QJ7wui1v9pSAoicvc7agKT9zZZL1VeVJRHHxtbSEbzvjX/yx0oDsnUdNPmpZIlCjaGf/+mp3/l0x4YXnoMYJSYL4pe2lrruXje8VjzqjG8B0OC+HszdslxVNqHTeoLGJqb8WHlhY6OpPZPlku5NZdVEa2PIz6YlyxeF5ZLGIZJx07XNgIuwPgEbD1idEeIFKzOXBmwREFM0mrREAgSOP21e8oP5fQ07Y16TihkgfmmsXd7kzV9IvfljuN/jkKyBZqKa8gMSHyjLKh82nkdXF9p3w+SS+qoDmVRWcLU0oFSXN4MYz+20fr6knYPy+kQCETDvgIggIWL98sq52L6Y35KOtf+8tnPj89VSx6OQmF0sS7asvu5eAvCR5Q4QZlObKmi38ynys9ftEgSkYJLLL00O2RXh+qh1uwQXDQlkVX1h+4q1p3SjLIZGaEPKL9Slag+7L7SvjAY29TUgyPvhwYQ5SLfSTFXO3jZkr3OXwkE6ofSRtuUPvABxkrhYEL90d9TTtvrNL4085tJLCMAw8bqspXXXTAFjuAY0yJd8FQZiBldE7o9zy4W1LSpgc+AsaEqjtdH01WT5uOsSBBxbaTRIlk2VQvNbAARpK7s0dsBcR9K09dDqo/+67jLacTRu233iBhC/NB2pbu3tbl5TPPacK/11s3ORgMDoEMlAq90BXXyAlFXVJbkSYlrpipCoNlIq+4rFPQ4nNm+NVQAH1lHB61L1FRSg1LFqXH3CfTDHknVHHKcwWSVbTMBAEm63ru3tX5zbu3ddA8RR4goQvzTuX11bWDpvT5a3/CuMcrIFtyQEfdiOLYnyYSssCREmrXJiY9pZ01dtXYCDRNFXFtTipBXHQS6vp3/Fc6glcRijKYJk9Hq4rXC/ZNcP6Sfg9TMg6uz64K9zOjc9uwPiLHEHiF9qqh/fMHHqNwpcqbkzQdwhGhL+AYHWGsj5DZPLCUMjHmtBjIBS19c4EQAm7S/micRyOeqrA9cXsOcngkIaH7E8xmyJ9Qv5GenZtfT77St+vUTuWewStyBdlGXPnnMrIfAJARcayBLFGokqmMQCckDiA6ktMcjltBdIbYv5ub6KLgNCJkjtAR9EA+NuqMgIKShGFj6x9thxkPqKPQNdXw3PgO2RaiWbu84cc8G3sEUI7KBdyI+l/X+I76m2tY/cDwmShFgQCAbtfV1HNj9fPOnS8wmQAuu8SivxnpBzV0RyJ6IKovH2sKAYA6Wyr1hQ7VD7430HUK1849odCdoV+XECQNMXQ342TVgbI9K9INPDYiku/mCUHG079Hrr8zdcRhs+S9hnYxMGEAi+x94GFFYVjp53HRGslfRAmaDd5GKB9IAUIBFdMmEyEq5eZ6AMa1pDX8W6iKKvBjeK67sdQzkApRTIEqM7ifYVNKBUKgRiZLY4K8RaMCtt7/xl8vP31tz2/kPzfXs/TOhnmRIKEL8c3rt8vze/ss2bX3m2X1VoBxnZ2Bg8wPPHwmwxBfjrYtoISk1ftRobIgYlf68O+q7oq6m8PG76sUIVAvAg5cuq6xH7LeYPdaWvZ9c7V/d8/MhHUuVxloQDxC97d1StGl2+uCYtu/gcAOoxuxagnOjOXIPomC0QNLYJoCBMdJPlEsubgmhV3wmSH6dc1aDkrjm4Vw4kOhYPuw+NJRHLCrcgQ4aQw93rHj+va9VvX5UKJUD6BSB+2b3p4fWlExbTtMzi+VpLwroSDoEhTjqWjkXLOgWJIr/OvTO1Z7IkuvwceNG+mACO9FXjYpksiRkkQlpB90r9ACLkD8+H7nWPX96z/m9vQD9JvwHEL/t2L3m/ZOxCX1pm8ekANBCT6E098LPBiWsgXpOsk8IdcAAkR+6dUgM7vA+nlhLb0i/2XXFNvG7Kr7TSSH70+bFp0YKKY6q8Ttp7Pj1wbc+Hd1RJnUmg9CtAerub6e4NDy8vnbg4NS2zOPABOtHUS+d0GljhGgAQfPevbjVYyo+4IgaAavuqKC/1VTcOKpAIASzWF7Y8QRZKncZ7qvb09yoH4Xa7Qn2qdE9D3Q29b1/9GPSz9CtALNm/e8mKorEL09Mzi08BoKwDgLs+dlKtwbFzaBDNtiVXIBziIMHPKUCp08CS6xNheftYvA2FEkBKRGp10ZSxr3xJGwQisyXYnFC6tfdA7bd6l3//UeiL6rXymGRAANLb3ez7dMPDb5ZOWuxOyygKfBAb00R8UGppv0g0dnR7qOwHJJbVaE374ToBZbziAy6NuCvIPTsBpaMAXteeBqAi/QsS2Al3pndj17V9H1z+94EABwwUQCzZv3vJuyPKFjanpBfOJYR49K4MKCe6mD/W+AD178W01rVQ9zVyjY1MII21QfOL90w0fdWNo9aNMsSHll9HBdChfQ6kG3s3/+Oavk0/Mv5MWiIF8TP6XxZcsfHr2YUVj4LuCxvCx+jA4WduqMOPw6Ff9IjTx+iUfVV8rYTrq4N7BewLMg6+AGP6bJHpXrGP0an6CixICGNJSNgzYD4Z1NtX/eSZvup/vBv1pIqTDKgFsWT3xpfW5+SNbvfmV8wPfADGCbukuIafc2Z5nNQfSdCOUrgG90NVF35fQh4nzJbS6iJ9jchKI+OojEd4a2EH5cHtJ619dSuv9K3/w2tS4QGQQQEQgGbYt+OZ9wHI84Wj550GAMUqfz/sGqvXUVT+uio+UK7+Sm4UMbYNDia21r2zzkYaH3Clwzeri7mkewd9nKTsq+Je8fwKkPil4/Cy3o9+fwbd9uSHcqmBkUHhYrGSk1eRd+bXNr5Jgc4Alcs0CD9rquwr4t6pPiDn9ONwqvxsXezH6NC+OnTvIv0YnTgOWP4w8JgPUYPrX3TpTVfTlhrjz6L1pwwSCxKW7o76jr3bn3k8t2iRNyPHe7J1XrVny4mLFdUeKoUW1AW1eH8MLpYmINdZEiy/XBcomSYxbaaiTX2XiXPzvQakG/a9fytde++t0FKbsF250cqgsyCsnHrJ2xcWls79B6U0EzBroPj2LxaI8mX1QTtoLAlFtLqubdFymbS/3Bck4NdYLgqY5dNbG7HvqqBdbFvZV53l4i1JPT26+Rx47/a1sc6VRMmgsyCs1Fb/bWt3T/PrJWMXLgCAwEeyI6F/HVOoKmthsE6RxBpY++ixYwLAHMA7fW0W7ztEZCkjJh9Se9bAR/efC1v+thkGsQxqgPjl6P7V+1uPVleNmnDJbABSCmhQHPpX6Rapg3bTGolUXrP7Fysfy0ZK7ljcHmLIz6aJYhyM5VUgwfrHHSvG0cpD3Y/Dsu9cDI2bD8Egl0EPEL+0HK5u3bvj2UfTM4oac/IrTgv9PEB0FKxC+yvzO6gLS0vlI7Q2scQHpo2NUv6IYg1nbUvRSfDEfrp/5bfpipvvhu7mAf0lLqcyqGMQTPJHzS087ZK3XqZAZ8ab2YokPojmt0jE9kDn3xviAzAsXIqxlNVRp8xWpO0p+xo68qW1vdj3zt2X08bNHVE//AGQIWFBWOlo2dO+Z/ObT2XmeA/n5FdMBYAc6xqntTT7mMTrILgTpq3oVgGClFWWl5W6Pr+mvCNmS8wDzC04YbYIUzpKKx1IU9jet/3J/+f76Hd30JY93TDEZMhZEFbySmblls+4+T9HTLj4vyjQ4sBJh8yWbC30zJaK0cEsCc7wOLdcmPbnr8ntgWa7B1eXg+0o2DW2r7r27GPq292zb+Wv+zY/8ih0Ho7LT88NhAxpgFgyatIlI6cv/MerlNBppj1bEAFIxLIqN0oFEmX5KEASKf2rA7gT+hcDuG7PFlu+rw9e7l7+rctpS01rPJ/zQMiQc7EwaWmobqmp/utfs9LHbM8uOHYcAJSIoWJUgaiirKl8pHuodLt/TX2PdA8VU0h/Hw7bY6/RzvT3enY+dlPP+vt+Stv2D6oV8Wjlc2FBWMkZXuGunPfA9fmlc+4BgFxqWKxSbQ/BtqNIZRWWxMkiG8Tg3lEH21F0bVND0K6vC1kopbCn88An3+2ufvA5aK6L/0MdQPncAcSSYSUzR46bfstVJRMuuh4AxqkmZzzjAyeulqouJ0ya2M9IXR8Q3CiTq6Wqi2lvY2/duw+37/rXE7Rx25B3pzD53ALEkuy8Y1Mq5zz4rfzRp99BAQpMFKyJjjVp2f74ld1Y4oNI6V9sXHw+uquzaeP/dH90/1O+lj2++D+1wSOfe4BYMqx4Zn75jPuuK5lw4lWUQqXWlYnR9XHKbOlAaZrYJpA4tZQqS4K056MAH3buePqxzh2rHvd1rBuyzFQk8oUBCCtjj7t52vARV19RPOGYyyilYyEGkIAwaUWQRL6xMbL2wBQfaNw7ESQ2zFhrQX1ru2qXPt+5d1lVd93SbQl7KINUvpAAsSRr+DGukokXL5hw0g9/7AMa+AzRULAkYnsAavrXBEoAfo0ErBp8vpebtzz6y7bNj76XyGcw2OULDRBLvN5SGFa+6IRhJSdfWDz+wjMpwMkUqCua+ADEia5htnQa3gkoVeWdMFtSWQo9vR0p73YffvXfHbVvv9ZZt3RL4kd+8EsSIIhMOPG24uKyxdekF038JqV0PMQCEkPQLtZlAiXaNlLe5G4xQFzXXvPW31p2NPy1u/7+pn4Y3iElSYBopQKKxk+qLBq/aGZa9shZ3qKTzgYCZSY6VproiKsFBqbJ5GqJ7YnlRQtk1UQp3dZ5eMPyjv1N7/YeXbK8re6dvf02nENQkgCJUMpOvG1C5vBjzi8a/+UFlMJsIJDrlP7F4hFwEB84pZuxugBoI6X0ra5dr73c0vXpv5vW/6mxP8drqEsSIDFIWvZIl7foxAlZhTOnZuSUTPZklo7LLTl+MqUwDggUSXGMgtmKNGhH8vcAwAEKtKZr/8eburoOb+04vH5Hb9uBrZ31jXt6Oz4eEu9eDEZJAiRBUjDu+8MyhvVNBELHDx85c3xWyekTKPgmUUoLIbBgGXyFWB8fcLFMExCooxT2UqCftu5dXddW/9EOALqpr37bjsZ9bw25reRDQZIAGSDJGHaMK334hGwCkA0ALkoDP1HnofbHvGkHAHQC0M7Opp2dnUd2fq5XrAer/P8AAAD///XsW9Cs2riYAAAAAElFTkSuQmCC;" vertex="1" parent="NQ4dIr6F3BnEGQSZVLPv-9">
          <mxGeometry width="50" height="50" as="geometry" />
        </mxCell>
        <mxCell id="NQ4dIr6F3BnEGQSZVLPv-6" value="Open5gs" style="text;html=1;align=center;verticalAlign=middle;whiteSpace=wrap;rounded=0;fontSize=14;" vertex="1" parent="NQ4dIr6F3BnEGQSZVLPv-9">
          <mxGeometry y="50.90909090909091" width="50" height="19.09090909090909" as="geometry" />
        </mxCell>
        <mxCell id="NQ4dIr6F3BnEGQSZVLPv-10" value="SMF" style="rounded=0;whiteSpace=wrap;html=1;strokeColor=none;fillColor=#CC6600;fontColor=#FFFFFF;align=left;verticalAlign=top;spacingLeft=10;" vertex="1" parent="1">
          <mxGeometry x="220" y="170" width="150" height="190" as="geometry" />
        </mxCell>
        <mxCell id="NQ4dIr6F3BnEGQSZVLPv-24" value="DNNs" style="rounded=0;whiteSpace=wrap;html=1;strokeColor=none;fillColor=#004C99;fontColor=#FFFFFF;align=left;verticalAlign=top;spacingLeft=10;" vertex="1" parent="1">
          <mxGeometry x="230" y="200" width="125" height="150" as="geometry" />
        </mxCell>
        <mxCell id="NQ4dIr6F3BnEGQSZVLPv-20" value="DNN: internet0" style="rounded=0;whiteSpace=wrap;html=1;strokeColor=none;fillColor=#6881B3;fontColor=#FFFFFF;" vertex="1" parent="1">
          <mxGeometry x="242.5" y="230" width="100" height="30" as="geometry" />
        </mxCell>
        <mxCell id="NQ4dIr6F3BnEGQSZVLPv-21" value="DNN: internet1" style="rounded=0;whiteSpace=wrap;html=1;strokeColor=none;fillColor=#6881B3;fontColor=#FFFFFF;" vertex="1" parent="1">
          <mxGeometry x="242.5" y="270" width="100" height="30" as="geometry" />
        </mxCell>
        <mxCell id="NQ4dIr6F3BnEGQSZVLPv-22" value="DNN: internet2" style="rounded=0;whiteSpace=wrap;html=1;strokeColor=none;fillColor=#6881B3;fontColor=#FFFFFF;" vertex="1" parent="1">
          <mxGeometry x="242.5" y="310" width="100" height="30" as="geometry" />
        </mxCell>
        <mxCell id="NQ4dIr6F3BnEGQSZVLPv-31" value="Core" style="text;html=1;align=center;verticalAlign=middle;whiteSpace=wrap;rounded=0;fontSize=24;" vertex="1" parent="1">
          <mxGeometry x="160" y="110" width="70" height="40" as="geometry" />
        </mxCell>
        <mxCell id="NQ4dIr6F3BnEGQSZVLPv-33" value="Tunnel Interfaces" style="rounded=0;whiteSpace=wrap;html=1;strokeColor=none;fillColor=#4C0099;fontColor=#FFFFFF;align=left;verticalAlign=top;spacingLeft=10;" vertex="1" parent="1">
          <mxGeometry x="410" y="190" width="160" height="160" as="geometry" />
        </mxCell>
        <mxCell id="NQ4dIr6F3BnEGQSZVLPv-34" value="intun0:&amp;nbsp;&lt;span style=&quot;background-color: transparent; color: light-dark(rgb(255, 255, 255), rgb(18, 18, 18));&quot;&gt;10.45.0.1/16&lt;/span&gt;" style="rounded=0;whiteSpace=wrap;html=1;strokeColor=none;fillColor=#7F00FF;fontColor=#FFFFFF;" vertex="1" parent="1">
          <mxGeometry x="420" y="230" width="130" height="30" as="geometry" />
        </mxCell>
        <mxCell id="NQ4dIr6F3BnEGQSZVLPv-35" value="intun1:&amp;nbsp;&lt;span style=&quot;background-color: transparent; color: light-dark(rgb(255, 255, 255), rgb(18, 18, 18));&quot;&gt;10.46.0.1/16&lt;/span&gt;" style="rounded=0;whiteSpace=wrap;html=1;strokeColor=none;fillColor=#7F00FF;fontColor=#FFFFFF;" vertex="1" parent="1">
          <mxGeometry x="420" y="270" width="130" height="30" as="geometry" />
        </mxCell>
        <mxCell id="NQ4dIr6F3BnEGQSZVLPv-36" value="intun2:&amp;nbsp;&lt;span style=&quot;background-color: transparent; color: light-dark(rgb(255, 255, 255), rgb(18, 18, 18));&quot;&gt;10.47.0.1/16&lt;/span&gt;" style="rounded=0;whiteSpace=wrap;html=1;strokeColor=none;fillColor=#7F00FF;fontColor=#FFFFFF;" vertex="1" parent="1">
          <mxGeometry x="420" y="310" width="130" height="30" as="geometry" />
        </mxCell>
        <mxCell id="NQ4dIr6F3BnEGQSZVLPv-37" style="edgeStyle=orthogonalEdgeStyle;rounded=0;orthogonalLoop=1;jettySize=auto;html=1;exitX=1;exitY=0.5;exitDx=0;exitDy=0;entryX=0;entryY=0.5;entryDx=0;entryDy=0;strokeWidth=2;strokeColor=#6881B3;endArrow=none;startFill=0;" edge="1" parent="1" source="NQ4dIr6F3BnEGQSZVLPv-22" target="NQ4dIr6F3BnEGQSZVLPv-36">
          <mxGeometry relative="1" as="geometry" />
        </mxCell>
        <mxCell id="NQ4dIr6F3BnEGQSZVLPv-38" style="edgeStyle=orthogonalEdgeStyle;rounded=0;orthogonalLoop=1;jettySize=auto;html=1;exitX=1;exitY=0.5;exitDx=0;exitDy=0;entryX=0;entryY=0.5;entryDx=0;entryDy=0;strokeWidth=2;strokeColor=#6881B3;endArrow=none;startFill=0;" edge="1" parent="1" source="NQ4dIr6F3BnEGQSZVLPv-21" target="NQ4dIr6F3BnEGQSZVLPv-35">
          <mxGeometry relative="1" as="geometry" />
        </mxCell>
        <mxCell id="NQ4dIr6F3BnEGQSZVLPv-39" style="edgeStyle=orthogonalEdgeStyle;rounded=0;orthogonalLoop=1;jettySize=auto;html=1;exitX=1;exitY=0.5;exitDx=0;exitDy=0;entryX=0;entryY=0.5;entryDx=0;entryDy=0;strokeWidth=2;strokeColor=#6881B3;endArrow=none;startFill=0;" edge="1" parent="1" source="NQ4dIr6F3BnEGQSZVLPv-20" target="NQ4dIr6F3BnEGQSZVLPv-34">
          <mxGeometry relative="1" as="geometry">
            <mxPoint x="343" y="249.76" as="sourcePoint" />
            <mxPoint x="420" y="249.76" as="targetPoint" />
          </mxGeometry>
        </mxCell>
        <mxCell id="NQ4dIr6F3BnEGQSZVLPv-40" value="enp0s8&amp;nbsp;&lt;div&gt;&lt;span style=&quot;background-color: transparent; color: light-dark(rgb(255, 255, 255), rgb(18, 18, 18));&quot;&gt;192.168.56.10&lt;/span&gt;&lt;/div&gt;" style="rounded=0;whiteSpace=wrap;html=1;strokeColor=none;fillColor=#4C0099;fontColor=#FFFFFF;verticalAlign=top;align=left;spacingLeft=10;" vertex="1" parent="1">
          <mxGeometry x="580" y="190" width="100" height="160" as="geometry" />
        </mxCell>
        <mxCell id="NQ4dIr6F3BnEGQSZVLPv-41" value="" style="shape=cylinder3;whiteSpace=wrap;html=1;boundedLbl=1;backgroundOutline=1;size=6.0000000000001705;rotation=-90;fillColor=#97D077;" vertex="1" parent="1">
          <mxGeometry x="605" y="185" width="15" height="120" as="geometry" />
        </mxCell>
        <mxCell id="NQ4dIr6F3BnEGQSZVLPv-42" value="" style="shape=cylinder3;whiteSpace=wrap;html=1;boundedLbl=1;backgroundOutline=1;size=6.0000000000001705;rotation=-90;strokeColor=#000000;fillColor=#97D077;" vertex="1" parent="1">
          <mxGeometry x="605" y="225" width="15" height="120" as="geometry" />
        </mxCell>
        <mxCell id="NQ4dIr6F3BnEGQSZVLPv-43" value="" style="shape=cylinder3;whiteSpace=wrap;html=1;boundedLbl=1;backgroundOutline=1;size=6.0000000000001705;rotation=-90;fillColor=#97D077;" vertex="1" parent="1">
          <mxGeometry x="605" y="265" width="15" height="120" as="geometry" />
        </mxCell>
        <mxCell id="NQ4dIr6F3BnEGQSZVLPv-44" value="PDU Session 1" style="text;html=1;align=center;verticalAlign=middle;whiteSpace=wrap;rounded=0;fontColor=#000000;" vertex="1" parent="1">
          <mxGeometry x="560" y="240" width="110" height="10" as="geometry" />
        </mxCell>
        <mxCell id="NQ4dIr6F3BnEGQSZVLPv-45" value="PDU Session 2" style="text;html=1;align=center;verticalAlign=middle;whiteSpace=wrap;rounded=0;fontColor=#000000;" vertex="1" parent="1">
          <mxGeometry x="560" y="280" width="110" height="10" as="geometry" />
        </mxCell>
        <mxCell id="NQ4dIr6F3BnEGQSZVLPv-46" value="PDU Session 3" style="text;html=1;align=center;verticalAlign=middle;whiteSpace=wrap;rounded=0;fontColor=#000000;" vertex="1" parent="1">
          <mxGeometry x="557.5" y="320" width="110" height="10" as="geometry" />
        </mxCell>
      </root>
    </mxGraphModel>
  </diagram>
</mxfile>
